<svg width="162" height="50" viewBox="0 0 162 50" fill="none" xmlns="http://www.w3.org/2000/svg">
<path fill-rule="evenodd" clip-rule="evenodd" d="M91.2844 30.9795H99.104C103.041 30.9795 104.026 33.4399 104.026 35.0805C104.026 37.3782 102.714 38.0344 102.058 38.3625C104.026 39.0738 104.518 40.6602 104.518 42.2448C104.518 43.503 103.97 44.7052 103.151 45.5268C102.221 46.4568 101.346 47.0037 98.0646 47.0037H91.2844V30.9795Z" fill="black"/>
<path fill-rule="evenodd" clip-rule="evenodd" d="M94.5104 44.2134H98.6114C100.253 44.2134 101.181 43.5021 101.181 41.8624C101.181 40.4948 99.979 39.9479 98.7759 39.9479H94.5104V44.2134ZM94.5104 37.2688H98.4478C99.7594 37.2688 100.799 36.7219 100.799 35.4637C100.799 34.1521 99.8688 33.7129 98.3384 33.7129H94.5104V37.2688Z" fill="white"/>
<path fill-rule="evenodd" clip-rule="evenodd" d="M113.487 30.542C115.62 30.542 121.197 31.4721 121.197 38.9636C121.197 46.5094 115.619 47.4394 113.487 47.4394C111.408 47.4394 105.83 46.5094 105.83 38.9636C105.831 31.4721 111.408 30.542 113.487 30.542Z" fill="black"/>
<path fill-rule="evenodd" clip-rule="evenodd" d="M113.487 44.5958C115.292 44.5958 117.862 43.4487 117.862 38.9644C117.862 34.4802 115.292 33.3848 113.487 33.3848C111.682 33.3848 109.165 34.4793 109.165 38.9644C109.165 43.4495 111.683 44.5958 113.487 44.5958Z" fill="white"/>
<path fill-rule="evenodd" clip-rule="evenodd" d="M124.149 47.0028H120.651L126.338 30.9795H130.22L135.853 47.0028H132.189L131.204 43.7208H125.298L124.149 47.0028Z" fill="black"/>
<path fill-rule="evenodd" clip-rule="evenodd" d="M126.173 40.9322H130.275L128.252 34.5886H128.196L126.173 40.9322Z" fill="white"/>
<path fill-rule="evenodd" clip-rule="evenodd" d="M142.635 47.0028H139.298V33.8222H134.432V30.9794H147.447V33.8222H142.635V47.0028ZM151.166 42.0811C151.219 42.956 151.657 44.6509 154.555 44.6509C156.142 44.6509 157.947 44.2676 157.947 42.5737C157.947 41.3155 156.745 40.9874 155.049 40.6041L153.3 40.1666C150.728 39.5647 148.214 39.0178 148.214 35.4637C148.214 33.7129 149.198 30.542 154.393 30.542C159.315 30.542 160.627 33.768 160.627 35.7358H157.401C157.346 35.0262 157.073 33.3305 154.119 33.3305C152.861 33.3305 151.33 33.768 151.33 35.2449C151.33 36.5031 152.37 36.7753 153.026 36.8846L156.963 37.8707C159.15 38.4176 161.119 39.2917 161.119 42.1904C161.119 47.0028 156.252 47.4403 154.83 47.4403C148.978 47.4403 147.994 44.0489 147.994 42.0811H151.166ZM10.7311 8.01144C10.7311 8.01144 5.04374 25.293 2.63757 46.1821C2.63757 46.1821 2.96568 49.08 5.8102 48.9172C5.8102 48.9172 7.39566 51.76 9.6382 31.6365L10.4038 31.4738C10.4038 31.4738 15.6536 41.7547 20.0827 45.5827C20.0827 45.5827 22.3253 46.511 24.5127 44.9265C24.5127 44.9265 26.5908 43.5038 23.0909 41.5893C23.0909 41.5893 16.2547 33.3322 14.8329 29.0667C14.8329 29.0667 36.1061 19.1139 33.2624 5.82488C33.2624 5.82488 32.2781 -1.83113 21.0671 0.41142C21.0671 0.41142 10.2393 2.48948 1.70834 10.2548C1.70834 10.2548 0.231397 11.3494 0.231397 12.4974C0.231397 12.4974 -0.206088 14.0837 0.122026 14.8484C0.122026 14.8484 1.05211 16.1066 2.30945 14.6848C2.30945 14.6831 7.3948 9.59689 10.7311 8.01144Z" fill="black"/>
<path fill-rule="evenodd" clip-rule="evenodd" d="M14.6684 6.15208C14.6684 6.15208 17.2391 7.41028 16.1454 9.43408C16.1454 9.43408 10.731 24.1992 10.731 26.8775C10.731 26.8775 27.4106 22.7774 28.1754 8.01139C28.1762 8.01139 28.3407 0.574136 14.6684 6.15208Z" fill="white"/>
<path fill-rule="evenodd" clip-rule="evenodd" d="M36.4885 21.4641C36.4885 21.4641 33.2616 15.7225 28.6137 20.7536C28.6137 20.7536 21.4495 30.324 23.2545 37.1042C23.2545 37.1042 23.9659 38.5269 25.2775 38.3082C25.2775 38.3082 27.793 42.8466 32.4417 34.6429C32.4417 34.6429 36.051 39.3459 38.9498 33.9316C38.9498 33.9316 40.6997 30.4868 40.8642 32.8379C40.8642 32.8379 40.8642 34.1512 42.7778 34.5336C42.7778 34.5336 44.5828 34.7523 44.8016 33.6586C44.8016 33.6586 46.0046 28.7911 48.6296 23.8694C48.6296 23.8694 49.7775 21.9558 49.4494 24.1975C49.4494 24.1975 48.2472 29.009 48.2472 30.9234C48.2472 30.9234 48.2472 32.1274 49.067 32.6191L50.7627 33.5492C50.7627 33.5492 52.5127 33.9307 53.2232 32.5098L54.9189 29.6118C54.9189 29.6118 57.5438 34.8617 61.8093 31.0328C61.8093 31.0328 60.8792 41.424 54.9189 41.1501C54.9189 41.1501 50.6534 41.3146 51.3638 34.8608C51.3638 34.8608 49.4494 34.2606 48.2472 35.4628C48.2472 35.4628 46.2234 44.9781 54.7001 45.3613C54.7001 45.3613 61.9186 46.0709 64.7623 34.5327C64.7623 34.5327 67.9892 21.5726 69.1923 18.1278C69.1923 18.1278 71.1067 13.4791 70.3953 13.0416C70.3953 13.0416 69.411 12.6593 68.8099 12.9323C68.8099 12.9323 68.5911 12.0573 67.3881 12.3312L67.0599 13.4791C67.0599 13.4791 62.3027 10.6355 58.8571 14.9552C58.8571 14.9552 55.8489 17.4165 53.9354 26.8758C53.9354 26.8758 51.6928 32.6183 52.1854 27.8619C52.1854 27.8619 53.2249 22.9944 54.701 19.3301C54.701 19.3301 56.3415 16.8145 53.2249 16.5958C53.2249 16.5958 52.0769 15.0646 50.4906 16.104C50.4906 16.104 48.4677 19.8227 47.4282 22.1737C47.4282 22.1737 46.2251 24.306 46.7169 20.6425C46.7169 20.6425 47.4282 17.1978 47.1543 16.2134C47.1543 16.2134 46.1149 14.6822 44.3107 14.9552C44.3107 14.9552 43.49 14.9552 42.9982 16.7051C42.9982 16.7051 40.3733 26.2756 38.514 29.8848C38.514 29.8848 37.5848 32.0714 36.7098 31.6899C36.7098 31.6899 36.1078 31.9086 36.6004 29.7203C36.6004 29.7203 37.4211 26.6571 38.3504 24.306C38.3504 24.306 39.2253 22.9944 38.241 22.557C38.241 22.557 37.8035 21.8465 36.9294 21.9558C36.926 21.9567 36.5436 21.738 36.4885 21.4641Z" fill="black"/>
<path fill-rule="evenodd" clip-rule="evenodd" d="M34.574 24.4714C34.574 24.4714 30.746 36.5566 27.6836 35.4637C27.6836 35.4637 25.3868 34.9711 29.2148 26.8768C29.2148 26.8768 30.5273 24.4714 32.1678 22.886C32.1687 22.886 34.574 21.2454 34.574 24.4714ZM65.6906 17.7998C65.6906 17.7998 62.1365 29.94 59.019 28.9557C59.019 28.9557 56.7222 28.5182 60.3857 20.3696C60.3857 20.3696 61.6439 17.854 63.2845 16.2686C63.2845 16.2694 65.6364 14.5738 65.6906 17.7998Z" fill="white"/>
<path fill-rule="evenodd" clip-rule="evenodd" d="M97.5737 11.402C97.5737 9.87075 98.8302 8.72192 100.307 8.72192C101.784 8.72192 103.042 9.86989 103.042 11.402C103.042 12.9874 101.784 14.1362 100.307 14.1362C98.8302 14.1362 97.5737 12.9874 97.5737 11.402Z" fill="black"/>
<path fill-rule="evenodd" clip-rule="evenodd" d="M100.307 13.6436C101.509 13.6436 102.495 12.7135 102.495 11.4019C102.495 10.1437 101.509 9.21362 100.307 9.21362C99.1049 9.21362 98.1205 10.1437 98.1205 11.4019C98.1205 12.7144 99.104 13.6436 100.307 13.6436Z" fill="white"/>
<path fill-rule="evenodd" clip-rule="evenodd" d="M99.7602 12.9875H99.2676V9.87085H100.472C101.181 9.87085 101.565 10.1438 101.565 10.7458C101.565 11.2927 101.182 11.5665 100.745 11.6208L101.62 12.9875H101.129L100.308 11.6208H99.7611L99.7602 12.9875Z" fill="black"/>
<path fill-rule="evenodd" clip-rule="evenodd" d="M100.307 11.2376C100.69 11.2376 101.073 11.2376 101.073 10.7458C101.073 10.3626 100.691 10.3083 100.363 10.3083H99.7611V11.2384L100.307 11.2376Z" fill="white"/>
<path fill-rule="evenodd" clip-rule="evenodd" d="M70.2842 20.1517C70.2842 20.1517 65.527 31.6357 72.0342 32.9473C72.0342 32.9473 77.0652 34.643 81.4944 27.9722C81.4944 27.9722 81.987 26.7683 81.8776 28.3004C81.8776 28.3004 81.7665 30.4869 81.8776 31.1983C81.8776 31.1983 82.2057 31.7451 82.6966 31.9096L84.338 32.6192C84.338 32.6192 85.3224 33.4399 85.4317 32.019C85.4317 32.019 86.7433 22.0653 91.2835 18.1288C91.2835 18.1288 93.4167 16.2144 91.721 20.9725C91.721 20.9725 92.8147 22.0662 94.4544 21.7381C94.4544 21.7381 95.6584 18.5112 96.1501 17.0893C96.1501 17.0893 97.9009 14.5738 94.3451 13.3707C94.3451 13.3707 92.4866 12.9332 90.7909 14.3551C90.7909 14.3551 89.4234 15.1758 89.8608 13.7531L89.9702 12.3313C89.9702 12.3313 88.1652 11.4563 85.8141 11.8395C85.8141 11.8395 83.5182 23.761 77.1746 28.9006C77.1746 28.9006 74.1665 31.6357 72.6353 27.8629C72.6353 27.8629 71.8154 25.9484 73.729 25.2371C73.729 25.2371 81.1662 26.6581 82.3151 17.7998C82.3151 17.7998 82.806 10.6364 76.3539 12.3855C76.3548 12.3864 73.5654 12.8239 70.2842 20.1517Z" fill="black"/>
<path fill-rule="evenodd" clip-rule="evenodd" d="M76.3548 17.7997C76.3548 17.7997 78.6516 14.7373 79.3087 17.5267C79.3087 17.5267 79.8555 19.9329 76.0818 21.9567C76.0818 21.9567 73.4569 23.6515 74.3318 21.2453C74.331 21.2453 75.1517 19.7141 76.3548 17.7997Z" fill="white"/>
</svg>
