<svg width="168" height="57" viewBox="0 0 168 57" fill="none" xmlns="http://www.w3.org/2000/svg">
<path fill-rule="evenodd" clip-rule="evenodd" d="M58.7297 15.209V22.0715L91.9843 56.0817V55.1323L58.7297 15.209ZM58.7297 22.7616V40.7377L47.8531 12.7914H36.8041L26.8123 38.4072C25.4958 38.6225 23.8562 38.7957 22.5182 38.7957C20.9648 38.7957 19.0434 38.5804 17.6192 38.321C15.4394 37.8893 13.3466 36.5298 12.0516 34.6748C10.7998 32.8396 10.0235 30.5961 10.0235 28.3516C10.0235 26.992 10.325 25.5248 10.8222 24.2729C11.9224 21.4676 14.62 19.3308 17.5977 18.9422C18.7194 18.813 20.0584 18.6623 21.2663 18.6623C23.8778 18.6623 26.596 19.1155 29.0352 19.9572L29.1653 13.1162C26.4462 12.3391 23.2523 11.7782 20.3168 11.7782C16.1089 11.7782 11.9224 12.6846 8.21071 14.3681C4.54209 16.0301 1.4128 19.6979 0.527955 23.6043C0.268602 24.8562 0.0532227 26.4312 0.0532227 27.8338C0.0532227 31.848 1.47742 35.8181 3.95966 38.925C6.09641 41.601 9.24723 43.8033 12.5057 44.7088C15.1603 45.4213 18.1164 45.8745 20.9217 45.8745H34.0428L36.0925 39.8322H48.5001L50.5507 45.8745H68.2244V34.1346L58.7297 22.7616ZM38.4661 32.7104L42.2855 21.4236V21.4021L46.1049 32.7104H38.4661ZM82.4896 12.7923V23.6034L91.9843 33.2937V12.7923H82.4896ZM155.257 38.7536V12.7923H145.74V45.8745H167.948V38.7536H155.257ZM129.08 33.186H142.116V26.0857H129.08V19.9132H143.107V12.7923H94.3579V19.9132H102.536V45.8745H112.033V19.9132H119.585V45.8745H143.582V38.7536H129.08V33.186ZM58.7297 0.102844V6.9869L91.9843 40.9756V40.027L58.7297 0.102844ZM58.7297 7.67701V14.518L91.9843 48.5282V47.5796L58.7297 7.67701ZM160.868 19.1585C161.624 19.1585 162.4 18.7915 163.005 18.2091C163.588 17.6697 163.89 16.9141 163.89 16.0723C163.89 15.2736 163.588 14.5189 163.005 13.9571C162.423 13.3316 161.688 13.0507 160.868 13.0507C160.026 13.0507 159.271 13.3316 158.731 13.914C158.15 14.518 157.825 15.2736 157.825 16.0723C157.825 16.871 158.128 17.6257 158.71 18.2091C159.271 18.7915 160.048 19.1585 160.868 19.1585ZM159.012 14.1734C159.487 13.6987 160.136 13.4608 160.868 13.4608C161.559 13.4608 162.228 13.6987 162.747 14.238C163.22 14.7127 163.501 15.3813 163.501 16.0939C163.501 16.8064 163.221 17.4534 162.725 17.9282C162.233 18.4252 161.568 18.7117 160.869 18.7269H160.848C160.501 18.7283 160.156 18.6582 159.837 18.5208C159.518 18.3833 159.23 18.1816 158.992 17.9282C158.518 17.4104 158.237 16.7633 158.237 16.0723C158.237 15.3813 158.516 14.7127 159.012 14.1734Z" fill="black"/>
<path fill-rule="evenodd" clip-rule="evenodd" d="M160.263 16.2662H160.933L161.602 17.7334H162.358L161.558 16.18C162.054 16.0508 162.358 15.7484 162.358 15.2521C162.358 14.6041 161.904 14.3242 160.933 14.3242H159.639V17.7334H160.263V16.2662ZM160.263 14.7127H160.868C161.429 14.7127 161.71 14.9066 161.71 15.3167C161.71 15.7053 161.43 15.856 160.868 15.856H160.264V14.7127H160.263Z" fill="black"/>
</svg>
