<svg width="168" height="47" viewBox="0 0 168 47" fill="none" xmlns="http://www.w3.org/2000/svg">
<path d="M161.967 0.992184V1.37396H162.292V3.8108H161.967V4.54185H163.801L163.788 4.18445L163.776 3.83111L163.605 3.81892L163.431 3.80674V2.94572L163.638 2.96603C163.951 2.99852 164.004 3.07162 164.044 3.54275C164.081 3.99762 164.17 4.22506 164.378 4.40783C164.557 4.56622 164.748 4.62308 165.089 4.62308C165.386 4.62308 165.565 4.5581 165.711 4.39564C165.858 4.23319 165.91 4.05448 165.91 3.70114V3.40466L165.727 3.41278C165.557 3.41684 165.545 3.42497 165.545 3.53056C165.545 3.69302 165.504 3.77019 165.423 3.77019C165.337 3.77019 165.317 3.72145 165.28 3.40466C165.264 3.28282 165.227 3.13254 165.195 3.07569C165.126 2.9376 164.825 2.67767 164.703 2.64924C164.565 2.61268 164.589 2.57207 164.772 2.51521C164.959 2.45835 165.195 2.26747 165.284 2.10095C165.353 1.96286 165.362 1.54454 165.297 1.32928C165.195 1.00031 164.894 0.772868 164.435 0.675394C164.317 0.655087 163.715 0.626658 163.097 0.622596L161.967 0.610413V0.992184ZM164.085 1.48768C164.187 1.58109 164.219 1.64201 164.231 1.80853C164.252 1.99129 164.24 2.02784 164.13 2.14969C164.02 2.27559 163.988 2.28777 163.719 2.29996L163.431 2.3162V1.37396H163.695C163.927 1.37396 163.975 1.38614 164.085 1.48768ZM96.0273 18.4522V26.4328H100.58V20.4869C100.58 15.7798 100.593 14.5329 100.633 14.5004C100.731 14.4233 100.877 14.4029 101.146 14.4314C101.389 14.4557 101.426 14.472 101.576 14.6304C101.666 14.7238 101.918 15.0609 102.138 15.3858C102.357 15.7107 102.674 16.1737 102.845 16.4215C103.016 16.6651 103.512 17.3881 103.947 18.0257C104.382 18.6634 104.873 19.3741 105.032 19.6097C105.516 20.3123 105.898 20.8646 106.174 21.2748C106.321 21.486 106.683 22.0181 106.983 22.4527C107.28 22.8872 107.74 23.5533 108 23.9351C108.26 24.3128 108.691 24.9464 108.963 25.3362C109.232 25.7261 109.508 26.1323 109.577 26.2379L109.707 26.4328H118.021L118.013 18.4603L118 10.4918L115.736 10.4796L113.468 10.4715V16.3565C113.468 20.4138 113.455 22.278 113.423 22.3592C113.37 22.5054 113.321 22.5339 113.122 22.5339C112.74 22.5298 112.529 22.3471 111.923 21.4657C111.711 21.1571 111.374 20.6697 111.171 20.3773C110.971 20.0889 110.642 19.6137 110.439 19.3254C110.24 19.0329 109.91 18.5578 109.707 18.2694C109.508 17.977 109.179 17.5018 108.975 17.2134C108.776 16.921 108.447 16.4458 108.244 16.1534C108.044 15.8651 107.715 15.3899 107.512 15.1015C107.313 14.8091 106.983 14.3339 106.78 14.0455C106.581 13.7572 106.252 13.282 106.048 12.9896C105.849 12.6972 105.52 12.222 105.317 11.9336C105.117 11.6453 104.804 11.1985 104.625 10.9386L104.304 10.4715H96.0273V18.4522ZM130.457 10.4878C130.444 10.4999 130.135 10.5121 129.77 10.5162C128.477 10.5324 126.834 10.6461 125.42 10.8208C124.733 10.9061 124.017 11.0604 123.509 11.235C122.81 11.4747 122.574 11.694 122.176 12.486C121.854 13.1236 121.57 14.1308 121.497 14.8781C121.484 15.0122 121.468 15.1949 121.456 15.2843C121.448 15.3736 121.428 15.666 121.415 15.9341C121.403 16.2021 121.383 16.5149 121.371 16.6245C121.33 17.0226 121.346 20.8931 121.391 21.417C121.48 22.4161 121.639 23.0903 121.964 23.8132C122.139 24.1991 122.513 24.8286 122.688 25.0235C123.163 25.5474 124.241 25.9048 126.212 26.1851C126.765 26.2663 128.172 26.3638 129.16 26.3963C130.351 26.4328 134.575 26.4044 135.339 26.3557C138.469 26.1567 140.47 25.7099 141.27 25.0276C141.722 24.6377 142.128 23.8579 142.344 22.94C142.547 22.0952 142.567 21.7135 142.567 18.6959C142.563 15.5929 142.543 15.1259 142.323 14.0049C142.108 12.884 141.632 11.9133 141.132 11.5681C140.547 11.166 139.36 10.8858 137.453 10.6989C136.555 10.6137 136.368 10.5974 135.685 10.569C135.351 10.5568 135.03 10.5365 134.973 10.5284C134.831 10.504 130.481 10.4674 130.457 10.4878ZM134.262 14.3542C135.957 14.5004 136.933 14.671 137.29 14.8863C137.445 14.9756 137.624 15.2396 137.742 15.5442C137.937 16.06 138.006 16.8926 137.998 18.6146C137.99 20.5682 137.868 21.2627 137.449 21.7378C137.067 22.1724 135.912 22.4567 134.099 22.5623C133.058 22.6232 129.253 22.5907 128.847 22.5176C128.806 22.5095 128.627 22.4892 128.448 22.477C127.778 22.4161 126.936 22.1643 126.603 21.9206C126.42 21.7906 126.123 21.3642 125.973 21.019C125.777 20.5803 125.716 19.8696 125.733 18.3303C125.753 16.3484 125.879 15.7188 126.367 15.0974C126.57 14.8416 126.769 14.7319 127.229 14.6141C127.578 14.5248 128.94 14.3826 129.912 14.3298C130.595 14.2973 133.794 14.3136 134.262 14.3542ZM144.657 10.5121C144.665 10.5324 145.519 11.4056 146.559 12.4494C148.665 14.5695 151.645 17.579 152.044 17.9932C152.3 18.2613 152.304 18.2653 152.239 18.3669C152.202 18.4197 150.373 20.2595 148.177 22.4486L144.181 26.4288L147.413 26.4328H150.649L150.913 26.1567C151.06 26.0064 151.454 25.584 151.787 25.2144C152.121 24.8448 152.495 24.4346 152.621 24.3006C152.869 24.0325 153.531 23.3137 153.979 22.8182C155.336 21.3236 155.975 20.6372 156.052 20.5885C156.129 20.5397 156.166 20.5397 156.259 20.5803C156.324 20.6088 156.983 21.2992 157.719 22.1156C158.459 22.9319 159.199 23.7482 159.365 23.931C159.768 24.3737 160.357 25.0195 161.052 25.7952L161.622 26.4288H164.813L168 26.4328L167.699 26.1201C167.289 25.6977 165.358 23.732 163.634 21.9856C162.861 21.2017 161.804 20.1336 161.288 19.6097C160.443 18.7527 160.097 18.3791 160.097 18.3181C160.097 18.2816 161.601 16.6936 163.451 14.7766C163.744 14.4761 164.175 14.0252 164.406 13.7815C164.642 13.5338 165.061 13.0952 165.341 12.8068C166.768 11.3285 167.537 10.5162 167.537 10.4959C167.537 10.4837 166.093 10.4715 164.329 10.4715H161.117L160.719 10.9426C160.499 11.2026 160.146 11.6209 159.934 11.8727C159.723 12.1204 159.426 12.4697 159.276 12.6484C159.129 12.8231 158.629 13.416 158.166 13.9643C156.259 16.2184 156.316 16.1575 156.166 16.1575C156.105 16.1575 155.991 16.06 155.8 15.8407C155.65 15.666 155.202 15.1584 154.808 14.7116C154.414 14.2689 153.946 13.7369 153.771 13.5379C153.592 13.3348 153.182 12.8718 152.861 12.5063C152.535 12.1407 152.19 11.7468 152.088 11.629C151.987 11.5112 151.718 11.2066 151.487 10.9467L151.068 10.4715H147.856C145.807 10.4715 144.649 10.4878 144.657 10.5121ZM9.38686 10.573C9.37873 10.5771 8.73641 10.5933 7.9518 10.6096C7.17125 10.6218 6.47608 10.6421 6.40697 10.6502C6.34192 10.6624 6.098 10.6786 5.87035 10.6908C5.63862 10.703 5.27274 10.7355 5.05728 10.7558C3.049 10.9711 1.90664 11.296 1.39848 11.8036C1.19521 12.0067 0.829329 12.5266 0.621996 12.9083C0.491906 13.1439 0.313031 13.6719 0.268312 13.944C0.227659 14.2039 0.239855 15.861 0.288639 16.259C0.491906 17.977 1.16675 19.0329 2.36603 19.5163C3.06526 19.7965 4.41089 20.0036 6.02076 20.0767C6.34599 20.093 6.65495 20.1133 6.71187 20.1214C6.76878 20.1295 7.94773 20.1376 9.33401 20.1417C12.444 20.1498 13.0131 20.1823 13.6636 20.3895C14.1596 20.5479 14.4116 20.8078 14.5417 21.283C14.6108 21.5429 14.623 22.0628 14.562 22.2211C14.3872 22.672 13.8059 22.9847 12.8912 23.1187C12.1716 23.2243 11.6106 23.2406 9.42345 23.2365C6.58178 23.2284 5.82156 23.1756 5.1833 22.936C4.74831 22.7735 4.35397 22.2496 4.21982 21.6607L4.1629 21.417L2.08145 21.4129L0 21.4089L0.00813067 22.0628C0.0162613 23.0212 0.130091 23.5939 0.42686 24.2153C0.674846 24.7311 0.979746 25.1697 1.19114 25.3159C1.98388 25.8724 3.73604 26.2216 6.3094 26.3394C7.62251 26.4003 13.2896 26.3638 13.7612 26.2907C13.8059 26.2826 14.0213 26.2663 14.2327 26.2501C14.9645 26.2013 16.0256 26.0389 16.611 25.8845C17.0053 25.783 17.424 25.5596 17.6679 25.3322C17.9322 25.0844 18.3591 24.459 18.5583 24.0366C18.6355 23.8701 18.7493 23.5655 18.8144 23.3665L18.9282 23.0009L18.9241 21.7825C18.9241 20.4707 18.8916 20.1498 18.6762 19.4107C18.4322 18.5659 17.9119 17.8795 17.2817 17.5708C16.7573 17.315 15.7816 17.0835 14.7816 16.9738C14.1108 16.8966 14.062 16.8926 13.7652 16.8723C12.6432 16.787 11.8342 16.7626 9.2527 16.7464C6.16711 16.7261 5.76871 16.6855 5.22396 16.3402C4.79303 16.0681 4.5857 15.6701 4.58976 15.134C4.59383 14.3258 5.22802 13.944 6.8135 13.7937C7.50461 13.7288 11.2976 13.7328 12.1472 13.7978C13.3343 13.8912 13.8872 14.1186 14.1636 14.6344C14.2327 14.7644 14.249 14.87 14.2531 15.1502V15.5076H16.3711C18.2696 15.5076 18.4973 15.4995 18.5176 15.4427C18.5705 15.3086 18.542 14.0943 18.481 13.7694C18.294 12.7906 17.8265 11.9417 17.2736 11.5843C16.611 11.1538 15.3507 10.8614 13.501 10.7152C13.2001 10.6908 12.8505 10.6624 12.7286 10.6543C12.6066 10.6421 11.9846 10.6258 11.3464 10.6137C10.7081 10.6015 10.0089 10.5852 9.7934 10.5771C9.57387 10.569 9.39093 10.569 9.38686 10.573ZM22.0626 10.5933C22.0544 10.6055 22.0544 13.2901 22.0585 16.5636C22.0666 23.1309 22.0585 22.8222 22.3268 23.5086C22.6683 24.3656 23.4651 25.3525 24.1115 25.714C24.7254 26.0551 25.7336 26.3029 26.9979 26.4206C27.7093 26.4856 28.25 26.4937 32.2422 26.4937C35.5717 26.4937 36.8319 26.4816 37.2425 26.4409C39.015 26.2704 40.1452 25.9536 40.8688 25.4134C41.1046 25.2428 41.629 24.6093 41.8608 24.2194C42.1575 23.7239 42.3893 23.0659 42.4462 22.5623C42.4746 22.3146 42.4868 20.2229 42.4787 16.3808L42.4665 10.573H40.0761C38.7589 10.573 37.6653 10.5812 37.645 10.5933C37.6247 10.6096 37.6044 12.8637 37.6003 15.9585L37.5881 21.2951L37.4743 21.5266C37.1938 22.0952 36.4376 22.4892 35.4009 22.611C34.6976 22.6923 34.3602 22.7045 32.5064 22.7045C30.7177 22.7004 29.9005 22.6679 29.2785 22.5704C27.9654 22.3674 27.1808 21.9612 26.8881 21.3358L26.7743 21.0921L26.754 15.8326L26.7336 10.573H24.4042C23.1196 10.573 22.0666 10.5812 22.0626 10.5933ZM45.6578 18.5415V26.5141H50.1297V24.6661C50.1297 22.6517 50.1337 22.6232 50.3573 22.473C50.4711 22.3958 50.585 22.3917 54.4796 22.3795C57.1261 22.3714 58.6099 22.3836 58.862 22.412C59.4759 22.4811 59.9474 22.7085 60.1873 23.0537C60.3865 23.3421 60.4109 23.5858 60.415 25.121V26.5141H65.0535L65.0372 24.5524C65.0291 23.4761 65.0088 22.5379 64.9925 22.473C64.9112 22.1277 64.8665 22.0018 64.7364 21.7297C64.525 21.3033 64.338 21.1124 63.9437 20.9174C63.7567 20.8281 63.4518 20.7062 63.2688 20.6494C62.846 20.5154 62.7729 20.4788 62.7729 20.3854C62.7729 20.2473 62.907 20.162 63.5249 19.9183C64.212 19.6422 64.4925 19.3822 64.8258 18.6999C65.1064 18.1232 65.1104 18.111 65.1104 16.0356C65.1104 13.9846 65.0901 13.5216 64.9681 13.0586C64.7649 12.2545 64.1103 11.4625 63.3623 11.101C62.9111 10.8858 62.6793 10.8248 61.9964 10.7396C60.8378 10.5893 60.2686 10.5812 52.9063 10.5771L45.6578 10.573V18.5415ZM59.4027 14.5248C59.8905 14.6426 60.3418 14.935 60.4637 15.2152C60.6385 15.6051 60.7077 16.6936 60.602 17.2947C60.5491 17.5911 60.358 18.046 60.2158 18.2044C60.0857 18.3547 59.7808 18.4684 59.3905 18.5171C59.1303 18.5496 57.6871 18.5659 54.7276 18.5659L50.4427 18.5699L50.3492 18.4562L50.2516 18.3466L50.2476 16.592C50.2435 15.6254 50.2476 14.8091 50.2516 14.7766C50.2597 14.6954 50.4142 14.5329 50.5159 14.4882C50.6419 14.4354 59.175 14.4679 59.4027 14.5248ZM68.3993 10.5893C68.3911 10.5974 68.383 14.1877 68.383 18.5618V26.5141H73.0988L73.1069 23.7076L73.1191 20.9012L73.2411 20.8037L73.3631 20.7062H84.6037V17.3475L79.1277 17.3434C76.1112 17.3434 73.5948 17.3393 73.5338 17.3393C73.4647 17.3353 73.3712 17.2865 73.298 17.2175L73.1801 17.0997V15.7838C73.1801 14.3095 73.1882 14.2527 73.4647 14.1186C73.5988 14.0496 73.9688 14.0455 79.4733 14.0455H85.3355L85.3273 12.3113L85.3151 10.573H76.8674C72.2207 10.573 68.4074 10.5812 68.3993 10.5893ZM88.0186 19.5691V26.4734H90.3521C92.1815 26.4734 92.6897 26.4613 92.7019 26.4206C92.71 26.3963 92.7141 23.2934 92.7141 19.5284L92.71 12.685L90.3643 12.6728L88.0186 12.6647V19.5691ZM128.696 37.1956C128.172 37.289 127.753 37.5448 127.485 37.9266C127.253 38.2637 127.208 38.3937 126.944 39.5796C126.924 39.6689 126.904 39.673 126.497 39.673C126.09 39.673 126.07 39.6771 126.05 39.7624C126.042 39.8152 126.001 39.9817 125.969 40.1401C125.932 40.2944 125.895 40.4569 125.883 40.4934C125.863 40.5584 125.899 40.5665 126.298 40.5665H126.733L126.708 40.6762C126.493 41.6631 126.367 42.252 126.196 43.0643C126.082 43.6004 125.973 44.1121 125.952 44.2015C125.895 44.4289 125.501 46.285 125.501 46.3134C125.501 46.3256 125.761 46.3337 126.082 46.3337H126.66L126.757 45.8991C126.806 45.6555 126.891 45.2574 126.948 45.0138C127.119 44.2177 127.489 42.4754 127.68 41.5819C127.782 41.1026 127.871 40.6762 127.883 40.6356C127.904 40.5746 127.969 40.5665 128.485 40.5665H129.062L129.152 40.1685C129.2 39.9532 129.241 39.7502 129.241 39.7217C129.241 39.6852 129.099 39.673 128.672 39.673H128.103L128.123 39.5796C128.339 38.6252 128.444 38.3652 128.688 38.2109C128.875 38.0972 129.18 38.0647 129.448 38.1337C129.57 38.1662 129.684 38.1906 129.705 38.1906C129.725 38.1906 129.782 37.9835 129.831 37.7357L129.92 37.2768L129.774 37.2362C129.566 37.1752 128.932 37.1509 128.696 37.1956ZM35.3359 37.7113C35.2099 38.3043 34.9822 39.3684 34.8846 39.8152C34.8399 40.0142 34.7017 40.664 34.5797 41.257C34.4537 41.8499 34.3155 42.4957 34.2748 42.6988C34.1 43.4989 33.913 44.3721 33.8886 44.5142L33.8602 44.6685H35.0351L35.1408 44.1487C35.3359 43.1942 35.5758 42.0977 35.592 42.0814C35.6123 42.0611 35.7302 42.2723 36.0311 42.8612C36.1571 43.1049 36.3522 43.4826 36.4661 43.6938C36.5799 43.905 36.7425 44.2137 36.8238 44.3721L36.9783 44.6685H38.3077L38.2507 44.5792C38.141 44.4127 36.8401 42.1261 36.8116 42.0571C36.7954 42.0083 36.8482 41.9352 37.0027 41.7931C37.1206 41.6875 37.5678 41.2813 37.9946 40.8914C38.4215 40.5015 38.8971 40.067 39.0516 39.9289L39.3362 39.673H37.9215L37.7548 39.8233C37.6653 39.9045 37.1612 40.3797 36.6409 40.8833C36.1164 41.3829 35.6815 41.7809 35.6693 41.7728C35.6489 41.7524 35.7018 41.4763 35.962 40.2822C36.0433 39.9126 36.153 39.4009 36.2059 39.145C36.2587 38.8892 36.3685 38.3774 36.4498 38.0078C36.527 37.6382 36.5921 37.3255 36.5921 37.3052C36.5921 37.289 36.3319 37.2768 36.0107 37.2768H35.4253L35.3359 37.7113ZM70.1352 37.4677C70.1108 37.5773 69.9888 38.1459 69.8669 38.7389C69.7408 39.3319 69.6148 39.9329 69.5823 40.0792C69.5498 40.2254 69.4766 40.5625 69.4197 40.8305C69.3628 41.0986 69.2367 41.6996 69.1351 42.1708C68.8871 43.3567 68.8749 43.4298 68.8871 43.7791C68.9115 44.4695 69.3424 44.7944 70.1677 44.7376C70.3588 44.7213 70.5742 44.6929 70.6433 44.6685C70.7572 44.6279 70.7694 44.6036 70.8385 44.2705C70.8791 44.0756 70.9198 43.8766 70.932 43.8278C70.9523 43.7425 70.9442 43.7385 70.8222 43.7791C70.6189 43.8522 70.2531 43.8035 70.1636 43.6938C70.0417 43.5435 70.0661 43.3242 70.3547 41.988C70.4319 41.6184 70.6068 40.8061 70.7409 40.1807C70.936 39.2547 71.1962 38.0363 71.3385 37.3864L71.3629 37.2768H70.1799L70.1352 37.4677ZM106.861 37.3255C106.853 37.3539 106.752 37.8251 106.638 38.3734C106.406 39.474 106.264 40.1319 106.048 41.1351C105.552 43.4257 105.5 43.8603 105.658 44.2015C105.865 44.6482 106.398 44.831 107.122 44.7092C107.357 44.6685 107.422 44.6442 107.451 44.5711C107.487 44.4898 107.614 43.8887 107.614 43.8116C107.614 43.7953 107.496 43.7872 107.349 43.8035C107.036 43.8319 106.87 43.775 106.8 43.6166C106.748 43.4867 106.776 43.2674 106.967 42.382C107.032 42.0652 107.134 41.5941 107.187 41.3382C107.24 41.0823 107.349 40.5787 107.426 40.2213C107.504 39.8639 107.666 39.0882 107.792 38.4952C107.918 37.9022 108.028 37.3864 108.036 37.3458C108.053 37.2808 108.004 37.2768 107.467 37.2768C107.032 37.2768 106.874 37.289 106.861 37.3255ZM61.5939 37.4474C61.3459 37.5733 61.228 37.7601 61.228 38.0241C61.228 38.2921 61.3378 38.4749 61.5654 38.5764C62.0777 38.812 62.6102 38.5074 62.6102 37.9835C62.6102 37.7357 62.4923 37.5489 62.2687 37.4433C62.0452 37.3336 61.8175 37.3336 61.5939 37.4474ZM21.3674 37.7317C21.3552 37.7601 21.282 38.0931 21.2048 38.4749C21.1276 38.8526 20.9284 39.8152 20.7576 40.6071C20.5909 41.3991 20.3877 42.3495 20.3104 42.7191C20.2332 43.0887 20.1072 43.6776 20.034 44.0268L19.8998 44.6685H21.0015L21.282 43.3364C21.4365 42.6053 21.6154 41.7606 21.6804 41.46C21.8837 40.5178 22.0666 39.5837 22.1195 39.2263C22.1927 38.7592 22.2252 38.7186 22.2536 39.0476C22.2943 39.4578 22.4488 40.071 22.7456 41.0133C22.8919 41.4722 23.0708 42.0408 23.1399 42.2804L23.27 42.7191H24.018L24.3432 42.2804C26.2539 39.7177 26.38 39.543 26.6483 39.0638C26.7296 38.9176 26.7946 38.8161 26.7946 38.8323C26.7946 38.8485 26.7215 39.1531 26.632 39.5106C26.5426 39.8639 26.3881 40.5462 26.2865 41.0214C26.1848 41.4966 26.0669 42.0489 26.0222 42.252C25.9775 42.451 25.8962 42.845 25.8393 43.1252C25.7824 43.4054 25.6889 43.8359 25.636 44.0837C25.5791 44.3314 25.5344 44.567 25.5344 44.6036C25.5344 44.6604 25.6035 44.6685 26.0791 44.6685H26.6198L26.6889 44.3355C26.7296 44.1487 26.8231 43.7141 26.8963 43.3689C26.9694 43.0237 27.0995 42.4185 27.1808 42.0286C27.4979 40.5381 27.628 39.9208 27.9532 38.4262C28.0305 38.0647 28.0955 37.7479 28.0955 37.7276C28.0955 37.6992 27.8394 37.6829 27.3231 37.6829H26.5507L25.5222 39.0516C24.3636 40.5949 24.2172 40.8021 24.0302 41.1757L23.896 41.4397L23.8391 41.1229C23.7863 40.8143 23.6643 40.3878 23.1521 38.7795C23.0057 38.3206 22.8675 37.886 22.8431 37.8129L22.8025 37.6829H22.0951C21.5625 37.6829 21.3796 37.6951 21.3674 37.7317ZM146.503 37.752C146.49 37.7926 146.344 38.5724 146.173 39.4902C146.007 40.4041 145.815 41.4478 145.746 41.8052C145.681 42.1627 145.624 42.4876 145.624 42.5241C145.624 42.5891 145.673 42.5972 146.092 42.5972C146.543 42.5972 146.559 42.5932 146.58 42.5038C146.592 42.4551 146.681 42.0774 146.779 41.6631C146.881 41.2488 146.998 40.7574 147.043 40.5665C147.527 38.5399 147.702 37.8129 147.722 37.752C147.742 37.687 147.698 37.6829 147.133 37.6829C146.588 37.6829 146.523 37.691 146.503 37.752ZM53.077 38.2759C52.8778 38.3327 52.6176 38.4018 52.5038 38.4343L52.2965 38.4952L52.207 38.9298C52.1623 39.1735 52.1013 39.4374 52.077 39.5187L52.0363 39.673H51.268L51.2436 39.7827C51.2314 39.8476 51.1948 39.9979 51.1663 40.1198C51.1379 40.2416 51.1013 40.3919 51.0891 40.4528L51.0647 40.5665H51.8452L51.8168 40.7371C51.8005 40.8346 51.6786 41.4235 51.5444 42.0489C51.4143 42.6744 51.2923 43.3242 51.2801 43.4948C51.2273 44.1649 51.4875 44.5995 52.016 44.7254C52.3209 44.7985 53.1339 44.7173 53.3372 44.5914C53.3657 44.5711 53.4307 44.3639 53.4795 44.1243C53.5852 43.6451 53.5893 43.6532 53.2966 43.7588C53.0892 43.8319 52.7315 43.84 52.6136 43.7791C52.4794 43.706 52.4306 43.4867 52.4876 43.1739C52.5404 42.8612 52.9103 41.0945 52.9876 40.7899L53.0364 40.5868L53.638 40.5746C54.069 40.5665 54.2438 40.5503 54.256 40.5137C54.2763 40.4366 54.4389 39.7217 54.4389 39.6974C54.4389 39.6852 54.1625 39.673 53.8291 39.673H53.2193L53.2396 39.5796C53.2518 39.5309 53.3169 39.2263 53.3819 38.9013C53.451 38.5764 53.5161 38.2799 53.5283 38.2393C53.5567 38.15 53.5323 38.154 53.077 38.2759ZM93.8239 38.3287C93.519 38.4099 93.2588 38.4871 93.2466 38.4993C93.2344 38.5114 93.1775 38.747 93.1206 39.0272C93.0637 39.3034 93.0068 39.5634 92.9946 39.5999C92.9742 39.6649 92.9173 39.673 92.5921 39.673H92.21L92.1693 39.8233C92.1083 40.0426 92.0026 40.5015 92.0026 40.534C92.0026 40.5543 92.1774 40.5665 92.3888 40.5665C92.6002 40.5665 92.775 40.5787 92.775 40.5949C92.775 40.6356 92.4905 42.0043 92.3441 42.6785C92.1937 43.3608 92.1815 43.9984 92.3157 44.2502C92.4254 44.4533 92.6449 44.6401 92.8523 44.7051C93.0962 44.7741 93.6938 44.7619 94.0068 44.6726C94.1572 44.632 94.2914 44.5873 94.2995 44.5792C94.3361 44.5426 94.4947 43.7344 94.4703 43.71C94.4581 43.6979 94.3564 43.7141 94.2467 43.7507C94.0312 43.8238 93.7385 43.8441 93.5962 43.7994C93.4865 43.7628 93.3848 43.5801 93.3848 43.4217C93.3848 43.3161 93.7385 41.5331 93.8279 41.1838C93.8483 41.0986 93.8889 40.928 93.9133 40.798L93.9581 40.5665H95.1736L95.198 40.4528C95.2102 40.3919 95.2468 40.2416 95.2752 40.1198C95.3037 39.9979 95.3403 39.8476 95.3525 39.7827L95.3768 39.673H94.7671C94.4337 39.673 94.1572 39.6649 94.1572 39.6527C94.1572 39.6202 94.4418 38.2759 94.4622 38.219C94.4865 38.154 94.4622 38.1581 93.8239 38.3287ZM140.522 38.3287L139.953 38.479L139.884 38.7633C139.848 38.9176 139.787 39.1856 139.75 39.3562L139.681 39.6689L139.291 39.6811L138.9 39.6933L138.807 40.0792C138.758 40.2903 138.717 40.4893 138.713 40.5137C138.713 40.5543 138.819 40.5665 139.104 40.5665H139.498L139.474 40.6762C139.457 40.7412 139.421 40.928 139.384 41.0945C138.904 43.3202 138.847 43.7588 138.982 44.1527C139.059 44.3802 139.323 44.632 139.567 44.7051C139.88 44.7985 140.502 44.7579 140.892 44.6198C141.018 44.5751 141.027 44.5548 141.108 44.173C141.226 43.6248 141.234 43.6532 140.982 43.7385C140.864 43.7791 140.665 43.8116 140.539 43.8156C140.071 43.8156 140.022 43.6329 140.217 42.6785C140.323 42.1505 140.571 40.9848 140.644 40.6559C140.665 40.5665 140.677 40.5665 141.27 40.5665H141.876L141.962 40.1888C142.01 39.9857 142.055 39.7827 142.063 39.7421C142.079 39.6771 142.031 39.673 141.474 39.673C141.12 39.673 140.868 39.6568 140.868 39.6365C140.868 39.6121 140.933 39.3034 141.01 38.942C141.161 38.2556 141.173 38.1662 141.124 38.1744C141.104 38.1744 140.835 38.2434 140.522 38.3287ZM31.0429 39.5918C30.6811 39.6446 30.1811 39.8152 29.8883 39.9857C29.2013 40.3878 28.6606 41.196 28.4452 42.1302C28.3476 42.5688 28.376 43.4704 28.5021 43.7953C28.7216 44.368 29.0265 44.6442 29.555 44.7538C30.1851 44.8838 30.7787 44.6279 31.2299 44.0309C31.3234 43.9009 31.421 43.775 31.4413 43.7547C31.4779 43.7182 31.4657 43.9172 31.4007 44.4777L31.3803 44.6726L31.9779 44.6604C32.543 44.6482 32.5796 44.6442 32.5918 44.567C32.5959 44.5223 32.6121 44.3477 32.6243 44.1812C32.6609 43.6897 32.7178 43.2998 32.8317 42.78C32.8886 42.5119 32.9902 42.0367 33.0552 41.724C33.1203 41.4113 33.2382 40.8549 33.3154 40.4853C33.3927 40.1198 33.4496 39.8111 33.4415 39.803C33.4171 39.7786 33.1162 39.7177 32.6975 39.6527C32.1812 39.5755 31.36 39.5471 31.0429 39.5918ZM31.9739 40.4731L32.1283 40.4975L32.104 40.664C32.0389 41.0498 31.7828 42.1545 31.6852 42.4348C31.486 43.0277 31.0836 43.576 30.7177 43.7547C30.6038 43.8116 30.4697 43.836 30.2868 43.836C29.9371 43.836 29.7664 43.7182 29.6404 43.3811C29.5591 43.1739 29.5509 43.0927 29.5713 42.6785C29.5956 42.183 29.681 41.8621 29.9046 41.4235C30.1241 40.9848 30.6079 40.5868 31.0388 40.4812C31.2015 40.4447 31.7665 40.4366 31.9739 40.4731ZM41.4095 39.608C40.7184 39.738 40.072 40.1644 39.6736 40.7452C39.2915 41.3016 39.1126 41.854 39.0841 42.5769C39.0354 43.7913 39.5313 44.5101 40.5761 44.7335C41.1209 44.8513 41.9746 44.7457 42.5112 44.502C42.621 44.4533 42.7145 44.4045 42.7226 44.4005C42.7429 44.3883 42.9259 43.4745 42.9137 43.4582C42.9096 43.4542 42.7673 43.5151 42.5966 43.5923C42.1982 43.775 41.8933 43.8563 41.4868 43.8847C40.7387 43.9375 40.3037 43.6045 40.2265 42.9303L40.198 42.6785H40.4176C40.9745 42.6744 41.9095 42.5444 42.3079 42.4104C42.9503 42.2033 43.2999 41.9352 43.491 41.5088C43.5763 41.3219 43.5967 41.2123 43.6007 40.928C43.6048 40.6193 43.5926 40.5543 43.4828 40.3431C43.3284 40.0426 43.0356 39.7948 42.686 39.6771C42.3527 39.5634 41.7917 39.5349 41.4095 39.608ZM42.1331 40.4609C42.6413 40.6762 42.5681 41.3179 42.003 41.6022C41.7022 41.7524 41.0883 41.8662 40.5639 41.8662H40.3241L40.3485 41.7524C40.3932 41.5737 40.6452 41.0864 40.7794 40.9199C41.1249 40.5056 41.7469 40.2944 42.1331 40.4609ZM48.7678 39.5755C48.3287 39.6243 47.7677 39.9004 47.5319 40.1847C47.2636 40.5137 47.1457 40.9442 47.2107 41.3707C47.2839 41.8296 47.5482 42.1464 48.1946 42.5322C48.6865 42.8247 48.8572 42.9709 48.906 43.1496C49.0442 43.6532 48.6052 43.9943 47.9059 43.9212C47.6213 43.8928 47.1823 43.7669 46.9424 43.6451C46.8571 43.6004 46.7717 43.5801 46.7554 43.6004C46.7148 43.6451 46.5481 44.4695 46.5725 44.5101C46.605 44.5589 46.9506 44.6604 47.3042 44.7254C47.727 44.8026 48.4832 44.7823 48.8084 44.6888C49.4385 44.5061 49.8573 44.1527 50.0036 43.6735C50.1053 43.3445 50.1093 43.1333 50.024 42.8368C49.902 42.4348 49.715 42.252 48.8531 41.6875C48.6783 41.5737 48.4954 41.4275 48.4466 41.3666C48.3328 41.2082 48.3287 40.8752 48.4425 40.7209C48.6661 40.4122 49.2515 40.3513 49.8532 40.5665C50.0402 40.6356 50.2069 40.6924 50.2272 40.7005C50.2557 40.7046 50.4386 39.9614 50.4549 39.7908C50.4549 39.7624 50.4305 39.7542 50.0077 39.6568C49.7272 39.5918 49.0401 39.5471 48.7678 39.5755ZM57.1383 39.5918C55.8211 39.7786 54.8942 40.6477 54.5487 42.0286C54.4226 42.5322 54.4267 43.3608 54.5568 43.7304C54.8089 44.4533 55.2235 44.7619 55.9431 44.766C56.3008 44.7701 56.3496 44.7579 56.5976 44.6401C56.8537 44.5142 57.0773 44.3111 57.4391 43.8766C57.5123 43.7872 57.5652 43.7466 57.553 43.7872C57.5408 43.8278 57.5164 44.0431 57.5001 44.2665L57.4757 44.6685H58.6506L58.6994 44.1324C58.7278 43.84 58.7888 43.4054 58.8335 43.1699C58.9352 42.6419 59.3295 40.7615 59.4433 40.2538C59.4921 40.0467 59.5206 39.8517 59.5084 39.8233C59.4962 39.7908 59.4149 39.7542 59.3295 39.7421C59.2441 39.7299 59.0002 39.6893 58.7888 39.6568C58.305 39.5796 57.4635 39.5471 57.1383 39.5918ZM58.175 40.5056C58.2156 40.5462 58.0774 41.2407 57.866 42.0652C57.6546 42.8937 57.244 43.5273 56.7724 43.7588C56.5895 43.8481 56.5122 43.8644 56.309 43.8481C56.1098 43.836 56.0407 43.8075 55.939 43.71C55.6707 43.4623 55.5691 42.9993 55.6544 42.4348C55.8089 41.4275 56.3293 40.7087 57.0489 40.5056C57.2887 40.4366 58.1099 40.4406 58.175 40.5056ZM66.3503 39.6121C65.8706 39.7502 65.3909 40.0751 65.0535 40.5015C64.9559 40.6274 64.8665 40.7249 64.8584 40.7168C64.8502 40.7087 64.8706 40.5137 64.9072 40.2903C64.9397 40.0629 64.9681 39.8314 64.9681 39.7745V39.673H63.838L63.7933 40.006C63.7323 40.4487 63.59 41.1676 63.3176 42.4145C63.1956 42.9709 63.0412 43.6857 62.9721 43.9984C62.907 44.3111 62.842 44.5914 62.8338 44.6157C62.8216 44.6564 62.9558 44.6685 63.4192 44.6685H64.0168L64.0656 44.433C64.2404 43.5354 64.5697 42.0895 64.6429 41.8946C64.6917 41.7646 64.8218 41.525 64.9315 41.3585C65.4844 40.534 66.33 40.2335 66.6674 40.7371C66.8463 41.0092 66.8341 41.1067 66.2162 44.0309L66.078 44.6726L66.6715 44.6604L67.261 44.6482L67.4155 43.9172C68.0497 40.9402 68.0781 40.7412 67.8992 40.2741C67.7935 39.9979 67.5049 39.7136 67.2488 39.6405C66.9723 39.5552 66.5943 39.5471 66.3503 39.6121ZM74.0745 39.5958C72.6557 39.8436 71.6759 41.1189 71.6759 42.7069C71.6759 43.3689 71.8223 43.8156 72.1516 44.1852C72.3589 44.4127 72.5703 44.5467 72.9199 44.6767C73.2614 44.7985 74.1558 44.8026 74.607 44.6767C74.8428 44.6117 75.2209 44.4695 75.3225 44.4045C75.3307 44.4005 75.3795 44.1852 75.4323 43.9212C75.4933 43.6166 75.5136 43.4542 75.4811 43.4664C75.4567 43.4745 75.29 43.5517 75.1111 43.6288C74.5298 43.8847 73.92 43.9619 73.5135 43.8319C73.1029 43.6979 72.8833 43.4095 72.8305 42.9303L72.802 42.6785H73.0216C73.8875 42.6703 74.8957 42.4754 75.416 42.2114C75.8795 41.9758 76.1803 41.5169 76.2088 40.993C76.2535 40.1644 75.66 39.6202 74.664 39.5715C74.4648 39.5634 74.1964 39.5715 74.0745 39.5958ZM74.7371 40.4609C75.0136 40.5787 75.1396 40.8427 75.0502 41.1229C74.9079 41.5656 74.3753 41.7971 73.3671 41.854L72.9281 41.8784L72.9565 41.7403C73.0785 41.1879 73.5704 40.6112 74.0501 40.4609C74.2737 40.3919 74.5745 40.3919 74.7371 40.4609ZM78.5626 39.5877C78.0951 39.6649 77.7536 39.8273 77.4609 40.1198C77.1682 40.4122 77.0666 40.6762 77.0666 41.1554C77.0625 41.4763 77.0788 41.5453 77.1723 41.7281C77.3146 42.0002 77.6804 42.3292 78.1032 42.5647C78.2902 42.6703 78.5179 42.8287 78.6033 42.9181C78.9041 43.2227 78.8309 43.6451 78.4447 43.836C78.1073 44.0025 77.3064 43.9131 76.7861 43.6451C76.6966 43.6004 76.6194 43.576 76.6072 43.5882C76.595 43.6004 76.5421 43.8116 76.4934 44.0553L76.4039 44.502L76.5299 44.5629C76.9446 44.7538 78.0788 44.8391 78.587 44.7132C79.148 44.5751 79.6033 44.2462 79.8107 43.8278C79.892 43.6613 79.9082 43.572 79.9082 43.2267C79.9082 42.8653 79.896 42.8003 79.7985 42.6135C79.6603 42.3535 79.4204 42.1383 78.9082 41.8256C78.2699 41.4357 78.1561 41.2773 78.2333 40.9117C78.2984 40.5868 78.5464 40.4447 79.0342 40.4447C79.3391 40.4447 79.709 40.534 79.9814 40.6762C80.0465 40.7087 80.1034 40.729 80.1115 40.7209C80.1278 40.7046 80.2944 39.8761 80.2944 39.8152C80.2944 39.7583 80.2416 39.7421 79.8432 39.6527C79.5058 39.5796 78.835 39.5471 78.5626 39.5877ZM82.7174 39.5958C82.0995 39.6974 81.5954 40.0182 81.3718 40.4447C81.2539 40.6762 81.1848 41.0945 81.2295 41.3544C81.3067 41.8459 81.5547 42.1423 82.1848 42.5119C82.6645 42.7962 82.8028 42.9018 82.88 43.0521C82.9613 43.2105 82.9613 43.4461 82.8759 43.6085C82.6686 44.0106 81.7742 44.0268 80.953 43.6451C80.8595 43.5963 80.7742 43.5679 80.766 43.576C80.762 43.5841 80.7132 43.7913 80.6644 44.039C80.5628 44.5711 80.5424 44.5426 81.0791 44.6685C82.1889 44.9285 83.2215 44.7335 83.7419 44.1609C83.9939 43.8847 84.0915 43.6248 84.0915 43.2064C84.0915 42.6378 83.8191 42.2682 83.0711 41.8215C82.4897 41.4763 82.3434 41.3016 82.38 40.9848C82.4206 40.6112 82.6686 40.4487 83.1849 40.4447C83.4939 40.4447 83.9085 40.5421 84.1646 40.6721C84.2907 40.7371 84.2704 40.7777 84.3801 40.2416C84.4167 40.0751 84.4533 39.9045 84.4655 39.868C84.4818 39.8152 84.4533 39.7827 84.372 39.7502C83.9939 39.608 83.128 39.5268 82.7174 39.5958ZM89.5431 39.608C88.5918 39.7908 88.0105 40.5218 88.1405 41.3666C88.2178 41.8377 88.4861 42.1505 89.1772 42.5647C89.7098 42.8815 89.8561 43.0399 89.8561 43.2998C89.8561 43.4014 89.8236 43.5395 89.7911 43.6085C89.5797 44.0106 88.6894 44.0268 87.8641 43.6451C87.7706 43.5963 87.6852 43.5679 87.6771 43.576C87.669 43.5841 87.6243 43.7913 87.5755 44.039C87.4698 44.5711 87.4494 44.5426 87.9942 44.6685C89.6894 45.0706 91.0595 44.3883 91.0107 43.1658C90.9863 42.6257 90.6976 42.2479 89.9903 41.8256C89.5797 41.5819 89.4211 41.4519 89.3317 41.2813C89.2585 41.1351 89.2788 40.8589 89.3805 40.7046C89.5878 40.3838 90.348 40.3513 90.9985 40.6396L91.1896 40.7249L91.2099 40.6356C91.2221 40.5868 91.2587 40.4081 91.2912 40.2416C91.3278 40.0751 91.3644 39.9045 91.3766 39.868C91.401 39.7827 91.3034 39.738 90.8847 39.6486C90.4741 39.5593 89.8805 39.543 89.5431 39.608ZM97.9177 39.5755C96.7509 39.7664 95.885 40.5706 95.5395 41.7931C95.4216 42.2114 95.389 42.8937 95.4744 43.2877C95.6411 44.0715 96.133 44.567 96.9136 44.7335C97.4583 44.8472 98.1819 44.7701 98.7673 44.5345L99.0926 44.4045L99.1861 43.9415C99.2389 43.6857 99.2714 43.4704 99.2633 43.4623C99.2552 43.4542 99.1413 43.5029 99.0113 43.5638C98.0315 44.0471 97.0843 43.9903 96.7428 43.4339C96.6452 43.2755 96.6168 43.178 96.6046 42.9587L96.5883 42.6785H96.7835C97.2835 42.6744 98.251 42.5444 98.625 42.4266C99.2389 42.2398 99.6739 41.9149 99.8568 41.5088C99.9747 41.2448 99.9991 40.794 99.9097 40.5097C99.7837 40.1157 99.4341 39.7948 98.9706 39.6527C98.7633 39.5877 98.1291 39.543 97.9177 39.5755ZM98.5356 40.4812C98.9503 40.6721 98.9218 41.2367 98.4868 41.5372C98.2185 41.72 97.5152 41.8662 96.9095 41.8662H96.6778L96.7022 41.7524C96.7469 41.5575 96.9095 41.2326 97.064 41.0214C97.4542 40.4975 98.0722 40.2741 98.5356 40.4812ZM102.796 39.608C101.723 39.8152 100.873 40.6559 100.56 41.8256C100.459 42.2155 100.434 42.9952 100.515 43.3445C100.747 44.3233 101.528 44.8391 102.674 44.7741C103.113 44.7498 103.581 44.6482 103.898 44.502C104.008 44.4533 104.101 44.4045 104.109 44.4005C104.13 44.3883 104.312 43.4745 104.3 43.4582C104.296 43.4542 104.154 43.5151 103.983 43.5923C103.585 43.775 103.28 43.8563 102.873 43.8847C102.125 43.9375 101.69 43.6045 101.613 42.9303L101.585 42.6785H101.804C102.101 42.6744 102.426 42.646 102.951 42.5728C104.329 42.3779 104.979 41.8459 104.987 40.9077C104.991 40.6193 104.975 40.5503 104.869 40.3431C104.715 40.0426 104.422 39.7948 104.073 39.6771C103.739 39.5634 103.178 39.5349 102.796 39.608ZM103.52 40.4609C103.906 40.6234 103.979 41.1026 103.662 41.4072C103.377 41.6753 102.93 41.8093 102.15 41.854L101.707 41.8784L101.735 41.7606C101.788 41.5494 102.003 41.1229 102.15 40.9442C102.507 40.5097 103.121 40.2903 103.52 40.4609ZM114.264 39.5918C113.927 39.6527 113.59 39.8476 113.301 40.1482C113.159 40.2985 113.008 40.469 112.968 40.5259L112.894 40.6274L112.919 40.4244C112.931 40.3106 112.951 40.0995 112.968 39.9451L112.992 39.673H112.419C111.748 39.673 111.833 39.5918 111.76 40.3228C111.711 40.8224 111.569 41.5534 110.947 44.4452C110.858 44.8675 110.707 45.5742 110.614 46.0088C110.524 46.4434 110.439 46.8414 110.431 46.8901L110.41 46.9835H111.589L111.614 46.8779C111.63 46.817 111.703 46.4637 111.78 46.0941C111.972 45.1681 112.077 44.7051 112.098 44.6848C112.106 44.6726 112.285 44.697 112.496 44.7335C113.577 44.9203 114.61 44.5548 115.281 43.7425C115.805 43.109 116.069 42.3292 116.069 41.4316C116.069 40.6884 115.903 40.2213 115.517 39.8801C115.22 39.6202 114.736 39.5065 114.264 39.5918ZM114.472 40.5665C114.769 40.7005 114.899 41.0011 114.895 41.5616C114.89 42.6257 114.325 43.5598 113.533 43.8278C113.244 43.9253 112.667 43.9091 112.305 43.7953C112.268 43.7832 112.272 43.7141 112.313 43.5232C112.346 43.3811 112.415 43.0562 112.472 42.8003C112.65 41.9474 112.915 41.3422 113.277 40.9483C113.675 40.5137 114.073 40.3838 114.472 40.5665ZM119.216 39.5918C118.671 39.673 118.143 39.937 117.732 40.3431C117.309 40.7574 117.041 41.2366 116.882 41.8459C116.773 42.2601 116.748 42.9303 116.821 43.2836C117.029 44.2299 117.671 44.7376 118.712 44.7701C119.314 44.7904 119.854 44.6848 120.301 44.4614C120.444 44.3883 120.448 44.3842 120.537 43.9375C120.586 43.6857 120.623 43.4785 120.614 43.4704C120.606 43.4623 120.472 43.5151 120.318 43.5923C119.956 43.7628 119.419 43.8969 119.098 43.8969C118.395 43.8969 117.939 43.4948 117.939 42.8734V42.6906L118.419 42.6622C119.671 42.585 120.415 42.3698 120.887 41.9433C121.159 41.6915 121.281 41.4235 121.306 41.0092C121.33 40.5868 121.245 40.331 120.98 40.0548C120.602 39.6527 119.956 39.4821 119.216 39.5918ZM119.879 40.4812C120.098 40.5828 120.192 40.7533 120.167 41.0133C120.155 41.1229 120.106 41.261 120.058 41.3341C119.85 41.6225 119.289 41.8093 118.5 41.854L118.025 41.8784L118.065 41.72C118.224 41.1311 118.74 40.5584 119.22 40.4406C119.44 40.3878 119.704 40.4041 119.879 40.4812ZM124.765 39.608C124.452 39.6933 124.135 39.9736 123.818 40.465C123.712 40.6193 123.631 40.729 123.631 40.7087C123.631 40.6843 123.659 40.4853 123.692 40.2619C123.789 39.604 123.846 39.673 123.184 39.673H122.619L122.598 39.803C122.444 40.7452 122.35 41.2732 122.265 41.6631C122.208 41.919 122.119 42.3414 122.066 42.5972C122.013 42.8531 121.903 43.3648 121.822 43.7344C121.741 44.104 121.663 44.4655 121.651 44.5386L121.627 44.6685H122.798L122.911 44.1284C123.346 42.1058 123.411 41.8743 123.651 41.4641C123.814 41.192 124.123 40.8711 124.33 40.7655C124.416 40.7209 124.562 40.6762 124.655 40.664C124.806 40.6477 124.912 40.664 125.294 40.7736C125.334 40.7858 125.375 40.6518 125.46 40.2213C125.525 39.9086 125.566 39.6446 125.558 39.6365C125.538 39.6121 125.176 39.5552 125.054 39.5552C124.997 39.5552 124.867 39.5796 124.765 39.608ZM131.575 39.5918C130.709 39.7177 129.924 40.3025 129.505 41.1351C128.948 42.2358 129.013 43.5679 129.656 44.2177C130.03 44.5954 130.424 44.7498 131.07 44.7701C131.672 44.7904 132.213 44.6848 132.66 44.4614C132.802 44.3883 132.806 44.3842 132.896 43.9375C132.945 43.6857 132.981 43.4785 132.973 43.4704C132.965 43.4623 132.831 43.5151 132.676 43.5923C132.314 43.7628 131.778 43.8969 131.457 43.8969C130.753 43.8969 130.298 43.4948 130.298 42.8815V42.6906L130.778 42.6622C132.03 42.585 132.774 42.3698 133.245 41.9433C133.518 41.6915 133.64 41.4235 133.664 41.0092C133.689 40.5868 133.603 40.331 133.339 40.0548C132.961 39.6527 132.314 39.4821 131.575 39.5918ZM132.237 40.4812C132.457 40.5828 132.55 40.7533 132.526 41.0133C132.514 41.1229 132.465 41.261 132.416 41.3341C132.209 41.6225 131.648 41.8093 130.859 41.854L130.379 41.8784L130.444 41.659C130.611 41.0945 131.111 40.5584 131.579 40.4406C131.798 40.3878 132.062 40.4041 132.237 40.4812ZM136.538 39.608C135.315 39.8476 134.449 40.7818 134.217 42.122C134.087 42.8653 134.201 43.6126 134.514 44.0593C135.01 44.766 136.018 44.9772 137.051 44.5914C137.404 44.4573 137.412 44.4452 137.518 43.9537C137.571 43.71 137.612 43.4989 137.616 43.4867C137.616 43.4704 137.494 43.5192 137.343 43.5963C136.949 43.7913 136.599 43.8725 136.266 43.8441C135.957 43.8156 135.819 43.7588 135.636 43.5638C135.445 43.3648 135.372 43.1536 135.351 42.7394C135.303 41.8621 135.733 41.0051 136.404 40.6437C136.648 40.5137 136.681 40.5056 137.067 40.5056C137.425 40.5056 137.502 40.5178 137.717 40.6193C137.851 40.6802 137.99 40.7615 138.026 40.794C138.063 40.8264 138.104 40.8427 138.116 40.8224C138.14 40.7818 138.352 39.8639 138.335 39.8517C138.331 39.8476 138.27 39.8192 138.205 39.7827C137.835 39.5958 137.034 39.5106 136.538 39.608ZM60.9841 39.6933C60.9841 39.7014 60.9028 40.1076 60.8012 40.5949C60.2239 43.3486 60.2036 43.4582 60.2239 43.775C60.2564 44.3842 60.541 44.6807 61.1589 44.7376C61.4191 44.762 61.9923 44.6929 62.0574 44.6279C62.0899 44.5954 62.2403 43.9416 62.2444 43.8278C62.2444 43.7953 62.159 43.7872 61.9435 43.8035C61.6468 43.8278 61.6386 43.8238 61.5167 43.706C61.4069 43.5923 61.3988 43.5679 61.415 43.3648C61.4272 43.243 61.598 42.3698 61.8012 41.4235C62.0004 40.4772 62.1631 39.6974 62.1631 39.6893C62.1631 39.6811 61.8988 39.673 61.5736 39.673C61.2483 39.673 60.9841 39.6811 60.9841 39.6933ZM145.649 43.4582C145.295 43.5313 145.072 43.8359 145.104 44.1893C145.141 44.5345 145.413 44.7498 145.82 44.7498C146.206 44.7498 146.474 44.5183 146.507 44.1527C146.555 43.6816 146.145 43.3526 145.649 43.4582Z" fill="black"/>
</svg>
